<?xml version="1.0" encoding="utf-8"?>
<svg version="1.1" id="anchor" xmlns="http://www.w3.org/2000/svg" xmlns:xlink="http://www.w3.org/1999/xlink" x="0px" y="0px"
	 viewBox="0 0 256.117157 315.3429565" enable-background="new 0 0 256.117157 315.3429565" xml:space="preserve">
<path id="anchor_1_" d="M239.7568207,250.0483398c0.4207764-0.7476044,0.8310852-1.4992523,1.2358246-2.2531281
	c0.3246307-0.6035767,0.64151-1.2101593,0.9557037-1.8177795c0.3180695-0.6162415,0.6353607-1.2322235,0.9426727-1.8525238
	c0.2856903-0.5762634,0.5627136-1.1555176,0.8394165-1.7352142c0.1987762-0.4173279,0.395813-0.8350677,0.589859-1.253891
	c0.2987976-0.644165,0.595047-1.2892609,0.8826904-1.9376221c0.1048889-0.2364197,0.2050476-0.4746094,0.3086395-0.7117767
	c0.6959686-1.5952301,1.3610382-3.2003021,1.9886475-4.816864c0.0014954-0.0031433,0.003006-0.006424,0.0040588-0.0093994
	c0.3238373-0.8343353,0.635025-1.6716461,0.9407043-2.5110626c0.0515137-0.1413269,0.1028595-0.2828217,0.1539154-0.4244537
	c4.5853729-12.730011,7.0968323-26.0291138,7.5182037-39.3788147H205.03862l0.0159912,0.0277557h-0.013443l22.6214905,38.8159637
	c-1.6975861,3.9415131-3.6465759,7.7740326-5.8141785,11.4967346c-4.3580475,7.4677582-9.6356812,14.4643097-15.8001404,20.8476105
	c-6.7447968,6.974762-14.234314,12.9310303-22.3040161,17.7711792c-11.34375,6.821228-23.8367462,11.4746399-36.9761505,13.7303162
	c-0.8868256-5.3213806-1.937912-12.3398743-2.9016266-20.5411987c-0.8099976-7.0076294-1.5219116-14.0370178-2.1022491-21.0665741
	c-1.2151947-14.8035889-1.9708862-29.6508942-2.2662354-44.5092468c-0.2192688-10.9932861-0.1862946-21.9973145,0.0217743-32.979538
	c0.1968689-10.971344,0.7991028-22.0085297,3.28479-32.7279205c2.2008667-9.4710388,5.4528046-19.9168625,11.5516357-27.6473083
	c3.4819183-4.4017944,8.2119598-7.5001526,12.5039978-11.0368652c4.3474884-3.5805969,8.0149689-7.8616486,11.048233-12.6026917
	c3.6240234-5.6717911,6.1864166-11.8255234,7.6862793-18.1870117c4.5441589-19.2819405-0.7116547-40.4032822-15.756134-55.4367218
	c-11.5297241-11.5189495-26.6616516-17.289402-41.7722321-17.3003006
	c-15.1101608,0.0108975-30.2417755,5.7813501-41.7719574,17.3003006
	C71.2501526,32.3337326,65.9946136,53.4550743,70.5386353,72.7370148
	c1.4998703,6.3614883,4.0619354,12.5152206,7.6862869,18.1870117c3.0329895,4.7410431,6.7010193,9.0220947,11.0477753,12.6026917
	c4.2920456,3.5367126,9.0226746,6.6350708,12.5043259,11.0368652c6.0989151,7.7304459,9.3507233,18.1762695,11.5516281,27.6473083
	c2.4853592,10.7193909,3.0877457,21.7565765,3.2849197,32.7279205c0.2082062,10.9822235,0.2410431,21.9862518,0.0220947,32.979538
	c-0.2956543,14.8583527-1.0513535,29.705658-2.2667313,44.5092468c-0.5802841,7.0295563-1.2918015,14.0589447-2.1023865,21.0665741
	c-0.9634399,8.2013245-2.0146103,15.2198181-2.9016266,20.5411987
	c-13.1392746-2.2556763-25.6325378-6.9090881-36.9758301-13.7303162
	c-8.0699844-4.8401489-15.5594063-10.7964172-22.3043365-17.7711792
	c-6.1643219-6.3833008-11.4417686-13.3798523-15.7995415-20.8476105c-2.1683426-3.722702-4.1173229-7.5552216-5.8143272-11.4967346
	l22.621357-38.8159637h-0.030014l0.0165787-0.0277557H-0.0000097c0.64613,20.4535828,6.1643229,40.7973022,16.5992393,59.137619
	l0.0132999-0.0231476c5.2062531,9.167923,11.6310234,17.8392487,19.292984,25.7714996
	c1.3467369,1.3904419,2.7153816,2.7481995,4.1171417,4.0732727c24.6140633,23.3220825,56.3015099,35.0379028,88.0437469,35.0379028
	c31.7427063,0,63.4302826-11.7158203,88.0444946-35.0379028c1.4013367-1.3250732,2.7702637-2.6828308,4.116684-4.0732727
	c7.658493-7.9285278,14.0806274-16.5955505,19.2855072-25.7583771l0.0050964,0.010025
	C239.6001434,250.339386,239.6755219,250.1926727,239.7568207,250.0483398z M128.0664062,59.1268654
	c-0.0107422,0-0.0107422,0-0.0214996,0c-13.1285172,0-26.2567291,2.003582-38.9034348,6.0331306
	c-1.8395309-12.0006027,1.8617935-24.69104,11.0810623-33.9104462c7.4453812-7.4453773,17.3328018-11.5296993,27.8438721-11.5405979
	c10.5116272,0.0108986,20.398819,4.0952206,27.8444672,11.5405979c9.2194061,9.2194061,12.9204559,21.9098434,11.0807495,33.9104462
	c-12.6461182-4.0295486-25.7747803-6.0331306-38.9031219-6.0331306
	C128.0776215,59.1268654,128.0776215,59.1268654,128.0664062,59.1268654z"/>
</svg>
