<?xml version="1.0" encoding="utf-8"?>
<svg version="1.1" id="anchor" xmlns="http://www.w3.org/2000/svg" xmlns:xlink="http://www.w3.org/1999/xlink" x="0px" y="0px"
	 viewBox="0 0 670 352" enable-background="new 0 0 670 352" xml:space="preserve">
<path id="anchor-01" fill="#FFFFFF" d="M409.8378296,237.8925018c0.2819214-0.5009003,0.5568237-1.0045013,0.8280029-1.5095978
	c0.2174988-0.4044037,0.4298096-0.8108063,0.6403198-1.2179108c0.2131042-0.4128876,0.4256897-0.825592,0.6315918-1.2411957
	c0.1914062-0.3860931,0.3770142-0.7742004,0.5624084-1.1625977c0.1331787-0.2796021,0.2651978-0.559494,0.3952026-0.8401031
	c0.2001953-0.4315948,0.3986816-0.8638,0.5914001-1.2982025c0.070282-0.1584015,0.1373901-0.3179932,0.2067871-0.4768982
	c0.4663086-1.0688019,0.9118958-2.1441956,1.3323975-3.2272949c0.0010071-0.0021057,0.0020142-0.004303,0.0027161-0.0063019
	c0.21698-0.5590057,0.4254761-1.1199951,0.6302795-1.6824036c0.0345154-0.094696,0.0689087-0.1894989,0.1031189-0.2843933
	c3.0722046-8.5290985,4.7548828-17.4394989,5.0372009-26.3838043h-34.2226257l0.0107117,0.0186005h-0.0090027l15.1564026,26.0066986
	c-1.1373901,2.6408081-2.4432068,5.2086029-3.8955078,7.7028046c-2.9198914,5.0034027-6.4559021,9.6911011-10.5860901,13.9678955
	c-4.5190125,4.6730957-9.5369873,8.6638031-14.9436951,11.9066925c-7.6003113,4.5702209-15.9706116,7.6880188-24.7740173,9.1993103
	c-0.5941772-3.5653076-1.2984009-8.2677002-1.9440918-13.7626038c-0.5426941-4.6950989-1.0196838-9.4048004-1.4085083-14.1145935
	c-0.8141785-9.9184113-1.3204956-19.8661041-1.5183716-29.8211975c-0.1469116-7.365509-0.1248169-14.738205,0.0145874-22.0962982
	c0.131897-7.3507996,0.5354004-14.7457123,2.2008057-21.9277039c1.4745789-6.3455963,3.6533813-13.3442993,7.7395935-18.5236969
	c2.3328857-2.9492035,5.5020142-5.0251007,8.3776855-7.3946991c2.9128113-2.3990021,5.3700256-5.2673035,7.4023132-8.4438019
	c2.4281006-3.8001022,4.1448975-7.9231033,5.1498108-12.1853027c3.0445862-12.9188995-0.4768066-27.0701981-10.5566101-37.142601
	c-7.7249146-7.7176971-17.8633118-11.5839005-27.9873962-11.5912018
	c-10.1238098,0.0073013-20.2619934,3.8735046-27.9872131,11.5912018
	c-10.0796814,10.072403-13.6008911,24.2237015-10.5563965,37.142601c1.0049133,4.2621994,2.7214966,8.3852005,5.1498108,12.1853027
	c2.0321045,3.1764984,4.4896851,6.0447998,7.4020081,8.4438019c2.8756714,2.3695984,6.0451965,4.4454956,8.3778992,7.3946991
	c4.0862732,5.1793976,6.2649841,12.1781006,7.7395935,18.5236969c1.6651917,7.1819916,2.0687866,14.5769043,2.2008972,21.9277039
	c0.1394958,7.3580933,0.161499,14.7307892,0.014801,22.0962982c-0.1980896,9.9550934-0.7044067,19.9027863-1.5187073,29.8211975
	c-0.3887939,4.7097931-0.865509,9.4194946-1.4085999,14.1145935c-0.6455078,5.4949036-1.3497925,10.1972961-1.9440918,13.7626038
	c-8.8033142-1.5112915-17.1737976-4.6290894-24.7738037-9.1993103c-5.4068909-3.2428894-10.4248047-7.2335968-14.9439087-11.9066925
	c-4.1300964-4.2767944-7.6659851-8.9644928-10.5856934-13.9678955c-1.4527893-2.4942017-2.758606-5.0619965-3.8955994-7.7028046
	l15.156311-26.0066986h-0.0201111l0.0111084-0.0186005h-34.2228088c0.4329071,13.7039032,4.1300964,27.334198,11.1214905,39.6222076
	l0.0089111-0.0155029c3.4881897,6.1425018,7.7927856,11.952301,12.9263,17.2668915
	c0.9023132,0.9316101,1.8193054,1.8413086,2.7584839,2.7290955c16.4914246,15.6257935,37.7220154,23.4754028,58.9893188,23.4754028
	c21.2676086,0,42.498291-7.8496094,58.9898071-23.4754028c0.9389038-0.8877869,1.8560791-1.7974854,2.7581787-2.7290955
	c5.1311951-5.3121033,9.434021-11.1190033,12.9212952-17.2581024l0.003418,0.0067139
	C409.7328491,238.0874939,409.7833557,237.9891968,409.8378296,237.8925018z M335.005249,109.9751053
	c-0.0072021,0-0.0072021,0-0.0144043,0c-8.7961121,0-17.5920105,1.3423996-26.0653076,4.0421982
	c-1.2324829-8.0404053,1.247406-16.5429993,7.4243164-22.7200012c4.9884033-4.9884033,11.6129761-7.7248993,18.6553955-7.7322006
	c7.0427856,0.0073013,13.6672058,2.7437973,18.6557922,7.7322006c6.177002,6.177002,8.6567078,14.6795959,7.4241028,22.7200012
	c-8.4729004-2.6997986-17.269104-4.0421982-26.065094-4.0421982
	C335.0127563,109.9751053,335.0127563,109.9751053,335.005249,109.9751053z"/>
</svg>
