<?xml version="1.0" encoding="utf-8"?>
<svg version="1.1" id="Mariupol" xmlns="http://www.w3.org/2000/svg" xmlns:xlink="http://www.w3.org/1999/xlink" x="0px" y="0px"
	 viewBox="0 419.3 1000 161.5" enable-background="new 0 419.3 1000 161.5" xml:space="preserve">
<path d="M0,424.3h4.5h22.1h4.5l32.7,56.9l32.4-56.9h4.5h21.1h5.5v124.1h-26.3v-85.9l-28.2,51.1H69H58.2h-3.7l-27.9-50.1v84.8H0
	V424.3z"/>
<path d="M243.4,515.4c0,10,2.1,12.6,9.2,12.6v20.3c-17.7,0-25.3-4-28.2-13.7c-7.6,9.7-18.7,16.3-31.1,16.3c-26.6,0-44-21.1-44-49.3
	c0-28.2,18.2-47.7,44-47.7c10.5,0,20.3,5,27.7,12.9l4-10h18.4V515.4z M197.3,529.9c11.3,0,20.3-9.5,20.3-25.6v-2.1
	c0-18.2-9-27.1-20.3-27.1c-10.8,0-21.1,8.7-21.1,26.6C176.2,519.9,185.7,529.9,197.3,529.9z"/>
<path d="M294.8,580.7h-25.6v-80.1c0-25.6,16.1-46.9,47.9-46.9c31.1,0,49.8,21.3,49.8,47.7c0,28.2-15.3,49.5-45.8,49.5
	c-10,0-19-4-26.1-10v39.8H294.8z M316.9,529.9c13.7,0,22.9-11.9,22.9-28.5c0-16.1-10-26.6-22.9-26.6c-13.7,0-22.1,10.8-22.1,27.1
	v2.1C294.8,518.6,302.4,529.9,316.9,529.9z"/>
<path d="M397.8,419.3c8.7,0,15.5,5.3,15.5,13.7s-6.8,13.7-15.5,13.7s-15.8-5-15.8-13.7C382,424.5,388.8,419.3,397.8,419.3z
	 M384.9,456.7h25.6v91.7h-25.6V456.7z"/>
<path d="M451,456.7l23.4,60.1l21.3-60.1h26.6l-34.2,90.9c0,0.3-0.3,0.3-0.3,0.5l-0.3,0.3c-8.7,21.1-21.9,32.4-41.6,32.4h-9v-22.1
	h8.4c7.4,0,12.1-5,15.5-12.6l-37.7-89.3C423.3,456.7,451,456.7,451,456.7z"/>
<path d="M535.3,456.7h16.6h9.2h34.8h9.2h16.6v91.7h-25.6v-70.6h-34.8v70.6h-25.6v-91.7H535.3z"/>
<path d="M687.6,454c28.7,0,47.9,19.5,47.9,47.7c-0.3,28.2-18.2,49.3-47.9,49.3c-29.8,0-47.7-21.3-47.7-49.5
	C639.9,473.3,658.9,454,687.6,454z M687.6,529.9c13.4,0,21.1-11.9,21.1-28.5s-8.7-26.6-21.1-26.6s-21.1,10-21.1,26.6
	S674.1,529.9,687.6,529.9z"/>
<path d="M762.9,456.7h16.6h9.2h22.1h9.2h16.6v91.7h-25.6v-70.6H789v4.2c0,49.3-12.6,66.4-38.2,66.4H745v-24h5
	c9.7,0,12.9-14.2,13.4-42.4h-0.3v-25.3H762.9z"/>
<path d="M874.6,419.3c8.7,0,15.5,5.3,15.5,13.7s-6.8,13.7-15.5,13.7c-8.7,0-15.8-5-15.8-13.7C858.8,424.5,865.9,419.3,874.6,419.3z
	 M862,456.7h25.6v91.7H862V456.7z"/>
<path d="M953.6,529.9c-13.4,0-21.1-11.9-21.1-28.5s8.7-26.6,21.1-26.6c9.2,0,16.3,5.5,19.5,15.3h27.1c-4.5-22.1-22.1-36.4-46.6-36.4
	c-28.7,0-47.7,19.5-47.7,47.7c0,28.2,17.9,49.5,47.7,49.5c25,0,41.6-14.8,46.4-36.4h-27.1C969.7,524.1,963.1,529.9,953.6,529.9z"/>
</svg>
